<svg xmlns="http://www.w3.org/2000/svg" viewBox="0 0 124.26 124.26"><title>cz-lines-orange-dark</title><g id="Layer_2" data-name="Layer 2"><g id="Layer_1-2" data-name="Layer 1"><path d="M62.13,0a62.13,62.13,0,1,0,62.13,62.13A62.2,62.2,0,0,0,62.13,0Zm0,3.5A59.27,59.27,0,0,1,116.4,40l-5.54-5.62H66.43V41.9L59,34.38H14.46V88.9l28.86,28.75A58.62,58.62,0,0,1,62.13,3.5ZM90.81,113.25c-1,.58-2.13,1.15-3.25,1.68L59.73,87.12v-5ZM18,37.88H56.42v6.37H24.32V79.91H56.23v6.37H18Zm9.86,38.53V50.22L54,76.41ZM93,47.75l-9.77,11-11-11Zm-33.1-2.48V40.36l21,21.06L78.64,64Zm-2.48,2.48L76.32,66.63,67,77.13l-.37.43v6.56L30.3,47.75ZM70.16,78.88l30.63-34.63H69.93V37.88h38.31v7.44L77.19,80h31.05v6.37H70.15ZM85,76.46l25-27.92,10.62,10.62c.06,1.07.09,2.05.09,3a58.18,58.18,0,0,1-3.71,20.52l-6.19-6.19Zm26.71-31.19v-5l7.17,7.28a56.5,56.5,0,0,1,1.22,6.14ZM57.44,89.78l26.7,26.68a58.19,58.19,0,0,1-22,4.3,59.21,59.21,0,0,1-12-1.24L20.3,89.78Zm36.45,21.6L72.35,89.83h36.91l2.87,2.86A59.39,59.39,0,0,1,93.89,111.38ZM115.6,86.15c-.51,1.13-1.07,2.27-1.67,3.39l-2.19-2.19V82.29Z" style="fill:#e5291f"/></g></g></svg>
